<svg viewBox="0 0 680 320" width="680" height="320" role="img" xmlns="http://www.w3.org/2000/svg">
  <title>LAIP — Laboratory of AI for Physics</title>
  <desc>A geometric logo combining a neural network lattice with orbital ellipses, alongside the LAIP wordmark and full lab name.</desc>

  <style>
    @import url('https://fonts.googleapis.com/css2?family=Space+Grotesk:wght@300;400;700&display=swap');
  </style>

  <rect width="680" height="320" fill="white"/>

  <g transform="translate(118, 160)">
    <ellipse cx="0" cy="0" rx="72" ry="26" fill="none" stroke="#1A6FBF" stroke-width="1.2" stroke-dasharray="4 3" opacity="0.55"/>
    <ellipse cx="0" cy="0" rx="72" ry="26" fill="none" stroke="#1A6FBF" stroke-width="1.2" stroke-dasharray="4 3" opacity="0.55" transform="rotate(60)"/>
    <ellipse cx="0" cy="0" rx="72" ry="26" fill="none" stroke="#1A6FBF" stroke-width="1.2" stroke-dasharray="4 3" opacity="0.55" transform="rotate(120)"/>

    <line x1="60" y1="-35" x2="60" y2="35" stroke="#2D9CDB" stroke-width="0.8" opacity="0.4"/>
    <line x1="60" y1="-35" x2="-60" y2="-35" stroke="#2D9CDB" stroke-width="0.8" opacity="0.4"/>
    <line x1="-60" y1="-35" x2="-60" y2="35" stroke="#2D9CDB" stroke-width="0.8" opacity="0.4"/>
    <line x1="-60" y1="35" x2="60" y2="35" stroke="#2D9CDB" stroke-width="0.8" opacity="0.4"/>
    <line x1="60" y1="35" x2="-60" y2="-35" stroke="#2D9CDB" stroke-width="0.8" opacity="0.3"/>
    <line x1="60" y1="-35" x2="-60" y2="35" stroke="#2D9CDB" stroke-width="0.8" opacity="0.3"/>

    <line x1="0" y1="0" x2="60" y2="-35" stroke="#56CCF2" stroke-width="0.9" opacity="0.6"/>
    <line x1="0" y1="0" x2="60" y2="35" stroke="#56CCF2" stroke-width="0.9" opacity="0.6"/>
    <line x1="0" y1="0" x2="-60" y2="-35" stroke="#56CCF2" stroke-width="0.9" opacity="0.6"/>
    <line x1="0" y1="0" x2="-60" y2="35" stroke="#56CCF2" stroke-width="0.9" opacity="0.6"/>
    <line x1="0" y1="0" x2="0" y2="-68" stroke="#56CCF2" stroke-width="0.9" opacity="0.6"/>
    <line x1="0" y1="0" x2="0" y2="68" stroke="#56CCF2" stroke-width="0.9" opacity="0.6"/>

    <circle cx="0" cy="-68" r="5" fill="#0B3F6E" stroke="#2D9CDB" stroke-width="1.5"/>
    <circle cx="60" cy="-35" r="5" fill="#0B3F6E" stroke="#2D9CDB" stroke-width="1.5"/>
    <circle cx="60" cy="35" r="5" fill="#0B3F6E" stroke="#2D9CDB" stroke-width="1.5"/>
    <circle cx="0" cy="68" r="5" fill="#0B3F6E" stroke="#2D9CDB" stroke-width="1.5"/>
    <circle cx="-60" cy="35" r="5" fill="#0B3F6E" stroke="#2D9CDB" stroke-width="1.5"/>
    <circle cx="-60" cy="-35" r="5" fill="#0B3F6E" stroke="#2D9CDB" stroke-width="1.5"/>

    <circle cx="30" cy="-52" r="3.5" fill="#1A6FBF" stroke="#56CCF2" stroke-width="1.2"/>
    <circle cx="60" cy="0" r="3.5" fill="#1A6FBF" stroke="#56CCF2" stroke-width="1.2"/>
    <circle cx="30" cy="52" r="3.5" fill="#1A6FBF" stroke="#56CCF2" stroke-width="1.2"/>
    <circle cx="-30" cy="52" r="3.5" fill="#1A6FBF" stroke="#56CCF2" stroke-width="1.2"/>
    <circle cx="-60" cy="0" r="3.5" fill="#1A6FBF" stroke="#56CCF2" stroke-width="1.2"/>
    <circle cx="-30" cy="-52" r="3.5" fill="#1A6FBF" stroke="#56CCF2" stroke-width="1.2"/>

    <circle cx="0" cy="0" r="14" fill="#0D1B2A" stroke="#2D9CDB" stroke-width="1.5"/>
    <circle cx="0" cy="0" r="8" fill="#1A6FBF"/>
    <circle cx="0" cy="0" r="4" fill="#56CCF2"/>
  </g>

  <text x="222" y="125" font-family="'Space Grotesk', sans-serif" font-size="88" font-weight="700" letter-spacing="-2" fill="#0D1B2A">LAIP</text>
  <rect x="222" y="136" width="268" height="2.5" fill="#2D9CDB" rx="1"/>
  <text x="223" y="162" font-family="'Space Grotesk', sans-serif" font-size="13" font-weight="300" letter-spacing="3" fill="#1A6FBF">LABORATORY OF AI FOR PHYSICS</text>
  <text x="224" y="186" font-family="'Space Grotesk', sans-serif" font-size="10.5" font-weight="400" letter-spacing="2.5" fill="#888888" opacity="0.8">RESEARCH LABORATORY</text>
</svg>
